Normalized EMG Linear Envelopes
nRows=132
nColumns=4

endheader
time	 med_gas_r	  soleus_r	 tib_ant_r	
3.50706	  0.015609	  0.013753	  0.006036	
3.57863	  0.018145	  0.014883	  0.006105	
3.6502	  0.020319	  0.015705	  0.006133	
3.72177	  0.021860	  0.016183	  0.006177	
3.79335	  0.022702	  0.016385	  0.006309	
3.86492	  0.023039	  0.016358	  0.006454	
3.93649	  0.023211	  0.016148	  0.006454	
4.00806	  0.023440	  0.015787	  0.006276	
4.07964	  0.023823	  0.015419	  0.006083	
4.15121	  0.024529	  0.015303	  0.006098	
4.22278	  0.025609	  0.015522	  0.006386	
4.29435	  0.026616	  0.015938	  0.006779	
4.36593	  0.026878	  0.016404	  0.007059	
4.4375	  0.026251	  0.016659	  0.007128	
4.50907	  0.025321	  0.016450	  0.007023	
4.58065	  0.024759	  0.015975	  0.006853	
4.65222	  0.024672	  0.015716	  0.006725	
4.72379	  0.024679	  0.015928	  0.006693	
4.79536	  0.024491	  0.016495	  0.006748	
4.86694	  0.024139	  0.016922	  0.006768	
4.93851	  0.023762	  0.016479	  0.006484	
5.01008	  0.023607	  0.015061	  0.005970	
5.08165	  0.024079	  0.014377	  0.006510	
5.15323	  0.025648	  0.018141	  0.010892	
5.2248	  0.029045	  0.030408	  0.022198	
5.29637	  0.035081	  0.051451	  0.040572	
5.36794	  0.043056	  0.074454	  0.060908	
5.43952	  0.050137	  0.090616	  0.076057	
5.51109	  0.053918	  0.097624	  0.082313	
5.58266	  0.054214	  0.099081	  0.080862	
5.65423	  0.051959	  0.099714	  0.076283	
5.72581	  0.049029	  0.103391	  0.074224	
5.79738	  0.048048	  0.110884	  0.077586	
5.86895	  0.049864	  0.119356	  0.084359	
5.94052	  0.052494	  0.125205	  0.090348	
6.0121	  0.053164	  0.125402	  0.093183	
6.08367	  0.050655	  0.118082	  0.092758	
6.15524	  0.046260	  0.106456	  0.089755	
6.22681	  0.043059	  0.099151	  0.086122	
6.29839	  0.043679	  0.101667	  0.085810	
6.36996	  0.047615	  0.110899	  0.091922	
6.44153	  0.051362	  0.120531	  0.102896	
6.5131	  0.052223	  0.127596	  0.113199	
6.58468	  0.050926	  0.132184	  0.117460	
6.65625	  0.049715	  0.134297	  0.114264	
6.72782	  0.049400	  0.134079	  0.107579	
6.7994	  0.049874	  0.134281	  0.103673	
6.87097	  0.052587	  0.139149	  0.106161	
6.94254	  0.060205	  0.150225	  0.114308	
7.01411	  0.073439	  0.165426	  0.123981	
7.08569	  0.090185	  0.182132	  0.130882	
7.15726	  0.107886	  0.199348	  0.134875	
7.22883	  0.124657	  0.216948	  0.138573	
7.3004	  0.139459	  0.233667	  0.142188	
7.37198	  0.152116	  0.245608	  0.143637	
7.44355	  0.161723	  0.249053	  0.142510	
7.51512	  0.168284	  0.246439	  0.141378	
7.58669	  0.174935	  0.243856	  0.142545	
7.65827	  0.183090	  0.243510	  0.144936	
7.72984	  0.189796	  0.246543	  0.146994	
7.80141	  0.192568	  0.254388	  0.149690	
7.87298	  0.192069	  0.260951	  0.153289	
7.94456	  0.191795	  0.258909	  0.155359	
8.01613	  0.198407	  0.257300	  0.154449	
8.0877	  0.219669	  0.273560	  0.153541	
8.15927	  0.257673	  0.302949	  0.158074	
8.23085	  0.304110	  0.321672	  0.169175	
8.30242	  0.347482	  0.325784	  0.180329	
8.37399	  0.382702	  0.334971	  0.184762	
8.44556	  0.409277	  0.360265	  0.184743	
8.51714	  0.427171	  0.392756	  0.187640	
8.58871	  0.436746	  0.413881	  0.195148	
8.66028	  0.440816	  0.412703	  0.202688	
8.73185	  0.446943	  0.400472	  0.206800	
8.80343	  0.460457	  0.397061	  0.208540	
8.875	  0.475032	  0.407010	  0.209768	
8.94657	  0.476140	  0.419921	  0.209046	
9.01815	  0.453962	  0.421821	  0.203612	
9.08972	  0.414463	  0.404661	  0.193066	
9.16129	  0.377884	  0.378862	  0.179554	
9.23286	  0.363753	  0.368763	  0.167063	
9.30444	  0.375014	  0.384688	  0.159765	
9.37601	  0.398485	  0.411210	  0.158489	
9.44758	  0.421452	  0.427303	  0.160502	
9.51915	  0.438414	  0.424110	  0.162976	
9.59073	  0.441881	  0.402159	  0.164348	
9.6623	  0.422435	  0.366405	  0.163404	
9.73387	  0.384237	  0.328426	  0.159763	
9.80544	  0.349958	  0.303641	  0.154988	
9.87702	  0.340901	  0.301190	  0.151520	
9.94859	  0.357786	  0.318499	  0.150729	
10.0202	  0.386524	  0.343770	  0.151888	
10.0917	  0.412113	  0.361550	  0.153111	
10.1633	  0.421753	  0.360200	  0.154328	
10.2349	  0.410060	  0.339861	  0.156915	
10.3065	  0.385459	  0.312910	  0.159008	
10.378	  0.361647	  0.292658	  0.156353	
10.4496	  0.350249	  0.286972	  0.150308	
10.5212	  0.362500	  0.303077	  0.148647	
10.5927	  0.399854	  0.339307	  0.155417	
10.6643	  0.444480	  0.377309	  0.165936	
10.7359	  0.473594	  0.407713	  0.173186	
10.8075	  0.482675	  0.447070	  0.174433	
10.879	  0.487201	  0.508300	  0.171375	
10.9506	  0.497283	  0.570809	  0.166708	
11.0222	  0.499439	  0.592495	  0.162789	
11.0937	  0.478631	  0.552240	  0.162572	
11.1653	  0.443953	  0.473331	  0.166863	
11.2369	  0.414337	  0.396899	  0.170789	
11.3085	  0.398186	  0.348620	  0.167764	
11.38	  0.396882	  0.336642	  0.157685	
11.4516	  0.410241	  0.358973	  0.148811	
11.5232	  0.432818	  0.405024	  0.148983	
11.5948	  0.449156	  0.456784	  0.155993	
11.6663	  0.435644	  0.484860	  0.159905	
11.7379	  0.375785	  0.451773	  0.151955	
11.8095	  0.278548	  0.346413	  0.129423	
11.881	  0.174315	  0.208688	  0.096950	
11.9526	  0.090963	  0.094508	  0.063900	
12.0242	  0.039888	  0.029343	  0.038074	
12.0958	  0.018264	  0.005982	  0.021985	
12.1673	  0.015346	  0.005782	  0.013844	
12.2389	  0.019669	  0.013218	  0.010495	
12.3105	  0.024103	  0.019759	  0.009531	
12.3821	  0.026140	  0.022077	  0.009470	
12.4536	  0.026156	  0.020331	  0.009258	
12.5252	  0.025505	  0.016969	  0.008480	
12.5968	  0.025089	  0.014385	  0.007563	
12.6683	  0.024968	  0.013377	  0.007257	
12.7399	  0.024718	  0.013601	  0.007985	
12.8115	  0.024012	  0.014434	  0.009606	
12.8831	  0.022943	  0.015390	  0.011645	
